<svg width="173" height="20" viewBox="0 0 173 20" fill="none" xmlns="http://www.w3.org/2000/svg">
<path d="M11.0742 19V18.4873C11.7969 18.3506 12.3047 18.1846 12.5977 17.9893C12.9004 17.7842 13.0518 17.501 13.0518 17.1396C13.0518 16.8467 12.9395 16.3975 12.7148 15.792L11.7041 13.0967H5.46387L4.58496 15.4258C4.36035 16.0215 4.24805 16.5 4.24805 16.8613C4.24805 17.6328 4.83398 18.1748 6.00586 18.4873V19H0.336914V18.4873C1.02051 18.3701 1.61621 18.0137 2.12402 17.418C2.63184 16.8223 3.13477 15.8506 3.63281 14.5029L8.67188 0.99707H11.0742L16.4062 15.0449C16.8945 16.2949 17.373 17.1689 17.8418 17.667C18.3105 18.1553 18.9209 18.4287 19.6729 18.4873V19H11.0742ZM6.00586 11.8369H11.2207L8.55469 4.71777L6.00586 11.8369ZM20.8154 19V18.4873C22.2998 18.3701 23.042 17.623 23.042 16.2461V4.36621C23.042 3.55566 22.8857 2.99414 22.5732 2.68164C22.2705 2.36914 21.6846 2.12988 20.8154 1.96387V1.45117H29.165C31.3525 1.45117 33.0322 1.83691 34.2041 2.6084C35.3857 3.37988 35.9766 4.46387 35.9766 5.86035C35.9766 6.86621 35.6689 7.73047 35.0537 8.45312C34.4482 9.17578 33.5742 9.70312 32.4316 10.0352V10.0938C32.8418 10.1914 33.2861 10.5332 33.7646 11.1191C34.2432 11.6953 34.9365 12.833 35.8447 14.5322C36.7334 16.1826 37.3779 17.2275 37.7783 17.667C38.1885 18.1064 38.7451 18.3799 39.4482 18.4873V19H34.3799C33.7158 18.2188 32.8662 16.7979 31.8311 14.7373C31.1182 13.3213 30.5859 12.3789 30.2344 11.9102C29.8926 11.4414 29.5312 11.1143 29.1504 10.9287C28.7793 10.7334 28.0322 10.6357 26.9092 10.6357V16.0264C26.9092 16.7979 27.0801 17.374 27.4219 17.7549C27.7637 18.126 28.3447 18.3701 29.165 18.4873V19H20.8154ZM28.1104 2.44727H26.9092V9.63965C27.2119 9.65918 27.4951 9.66895 27.7588 9.66895C29.1553 9.66895 30.1709 9.37109 30.8057 8.77539C31.4502 8.16992 31.7725 7.21777 31.7725 5.91895C31.7725 3.60449 30.5518 2.44727 28.1104 2.44727ZM55.4736 15.6455V10.4746H47.0508V16.0264C47.0508 16.8271 47.1875 17.3838 47.4609 17.6963C47.7344 17.999 48.3154 18.2627 49.2041 18.4873V19H40.957V18.4873C41.582 18.3311 42.0459 18.1602 42.3486 17.9746C42.6611 17.7891 42.876 17.5547 42.9932 17.2715C43.1201 16.9785 43.1836 16.4365 43.1836 15.6455V4.4248C43.1836 3.63379 43.0371 3.08203 42.7441 2.76953C42.4609 2.44727 41.8652 2.17871 40.957 1.96387V1.45117H49.2041V1.96387C48.3545 2.15918 47.7832 2.42285 47.4902 2.75488C47.1973 3.07715 47.0508 3.58984 47.0508 4.29297V9.21484H55.4736V4.4248C55.4736 3.63379 55.332 3.08203 55.0488 2.76953C54.7656 2.44727 54.1797 2.17871 53.291 1.96387V1.45117H61.5674V1.96387C60.6299 2.20801 60.0244 2.48633 59.751 2.79883C59.4775 3.10156 59.3408 3.77051 59.3408 4.80566V16.0264C59.3408 16.8076 59.4824 17.3594 59.7656 17.6816C60.0488 17.9941 60.6494 18.2627 61.5674 18.4873V19H53.291V18.4873C54.1406 18.292 54.7168 18.0283 55.0195 17.6963C55.3223 17.3545 55.4736 16.6709 55.4736 15.6455ZM73.916 19V18.4873C74.6387 18.3506 75.1465 18.1846 75.4395 17.9893C75.7422 17.7842 75.8936 17.501 75.8936 17.1396C75.8936 16.8467 75.7812 16.3975 75.5566 15.792L74.5459 13.0967H68.3057L67.4268 15.4258C67.2021 16.0215 67.0898 16.5 67.0898 16.8613C67.0898 17.6328 67.6758 18.1748 68.8477 18.4873V19H63.1787V18.4873C63.8623 18.3701 64.458 18.0137 64.9658 17.418C65.4736 16.8223 65.9766 15.8506 66.4746 14.5029L71.5137 0.99707H73.916L79.248 15.0449C79.7363 16.2949 80.2148 17.1689 80.6836 17.667C81.1523 18.1553 81.7627 18.4287 82.5146 18.4873V19H73.916ZM68.8477 11.8369H74.0625L71.3965 4.71777L68.8477 11.8369ZM96.5332 1.96387V1.45117H102.466V1.96387C100.767 2.06152 99.917 3.01855 99.917 4.83496V19.2051H99.3457L86.7188 4.9668V15.7041C86.7188 16.6416 86.8896 17.3008 87.2314 17.6816C87.5732 18.0527 88.2617 18.3213 89.2969 18.4873V19H83.2471V18.4873C84.0674 18.3604 84.6533 18.082 85.0049 17.6523C85.3662 17.2129 85.5469 16.5342 85.5469 15.6162V3.70703C84.8633 3.00391 84.3896 2.55469 84.126 2.35938C83.8721 2.16406 83.5693 2.03223 83.2178 1.96387V1.45117H88.4912L98.7451 13.2139V5.31836C98.7451 4.15625 98.5889 3.35547 98.2764 2.91602C97.9736 2.4668 97.3926 2.14941 96.5332 1.96387ZM103.784 19V18.4873C104.712 18.2334 105.312 17.9551 105.586 17.6523C105.869 17.3398 106.011 16.6709 106.011 15.6455V4.4541C106.011 3.66309 105.869 3.11133 105.586 2.79883C105.312 2.48633 104.712 2.20801 103.784 1.96387V1.45117H112.764C116.025 1.45117 118.599 2.27637 120.483 3.92676C122.378 5.57715 123.325 7.75 123.325 10.4453C123.325 13.043 122.48 15.1182 120.791 16.6709C119.102 18.2236 116.816 19 113.936 19H103.784ZM112.163 2.44727H109.878V15.9385C109.878 16.6904 110.098 17.2227 110.537 17.5352C110.977 17.8477 111.709 18.0039 112.734 18.0039C114.766 18.0039 116.338 17.3301 117.451 15.9824C118.564 14.6348 119.121 12.7305 119.121 10.2695C119.121 7.85742 118.511 5.95312 117.29 4.55664C116.069 3.15039 114.36 2.44727 112.163 2.44727ZM137.021 7.51562H137.593V12.9355H137.021C136.816 11.4414 136.006 10.6943 134.59 10.6943H131.499V15.8506C131.499 16.6416 131.68 17.1982 132.041 17.5205C132.402 17.8428 133.022 18.0039 133.901 18.0039H134.927C136.646 18.0039 137.876 16.915 138.618 14.7373H139.116L138.794 19H125.42V18.4873C126.309 18.3018 126.899 18.0381 127.192 17.6963C127.485 17.3447 127.632 16.6709 127.632 15.6748V4.39551C127.632 3.5752 127.48 3.00879 127.178 2.69629C126.875 2.37402 126.289 2.12988 125.42 1.96387V1.45117H138.589V5.34766H138.076C137.783 4.20508 137.417 3.43848 136.978 3.04785C136.548 2.64746 135.854 2.44727 134.897 2.44727H131.499V9.69824H134.59C135.293 9.69824 135.83 9.53223 136.201 9.2002C136.572 8.86816 136.846 8.30664 137.021 7.51562ZM157.778 1.45117V1.96387C157.065 2.11035 156.489 2.4082 156.05 2.85742C155.61 3.29688 155.176 4.07812 154.746 5.20117L149.341 19.4541H148.77L143.232 5.37695C142.725 4.09766 142.271 3.23828 141.87 2.79883C141.47 2.35938 140.894 2.08105 140.142 1.96387V1.45117H148.11V1.96387C147.134 2.12988 146.646 2.55469 146.646 3.23828C146.646 3.55078 146.748 3.96582 146.953 4.4834L150.454 13.3896L153.574 4.9668C153.76 4.44922 153.853 4.00977 153.853 3.64844C153.853 2.7207 153.223 2.15918 151.963 1.96387V1.45117H157.778Z" fill="black"/>
<path d="M169.517 14.3516C170.234 14.3516 170.844 14.6022 171.345 15.1035C171.858 15.6048 172.114 16.2144 172.114 16.9321C172.114 17.6499 171.858 18.2651 171.345 18.7778C170.844 19.2791 170.234 19.5298 169.517 19.5298C168.799 19.5298 168.189 19.2791 167.688 18.7778C167.187 18.2651 166.936 17.6499 166.936 16.9321C166.936 16.2144 167.187 15.6048 167.688 15.1035C168.189 14.6022 168.799 14.3516 169.517 14.3516Z" fill="#FF0000"/>
</svg>
